<svg xmlns="http://www.w3.org/2000/svg" viewBox="0 0 153.36 41.49" height="48px">
	<g>
		<path d="m140.13,13.97c0,.96-.78,1.74-1.74,1.74s-1.74-.78-1.74-1.74.78-1.74,1.74-1.74,1.74.78,1.74,1.74Z"/>
		<path d="m117.79,6.85l4.82-.07c.6-.02,1.08-.49,1.14-1.08.25-2.02,2.1-3.46,4.12-3.2.09.01.17.02.26.04,1.43.42,2.54,1.55,2.92,2.99.1.43.45.77.88.87,3.95.94,7.63,2.77,10.76,5.34.52.42.82,1.05.81,1.72v.24c0,.53.36,1,.88,1.13l5.32,1.33c.54.14.91.64.88,1.2,0,4.68-3.81,8.47-8.49,8.46l-.93.03c-7.24.22-14.08,3.35-18.99,8.67l-1.93,2.09c-.74.8-1.56,1.51-2.45,2.11v1.69h1.62c.92-.65,1.77-1.39,2.54-2.21l1.92-2.08c4.49-4.86,10.75-7.72,17.37-7.93l.89-.03c5.93-.02,10.74-4.81,10.78-10.74.03-1.65-1.08-3.1-2.67-3.51l-4.46-1.12c-.17-1.12-.75-2.14-1.63-2.85-3.23-2.64-6.99-4.56-11.03-5.64-1.03-3.16-4.42-4.88-7.58-3.85-1.89.62-3.35,2.13-3.91,4.03l-3.84.05v2.33Z"/>
	</g>
	<g>
		<path d="m2.19,1.56v7.39h4.08v.63H1.47V1.56h.73Z"/>
		<path d="m7.74,5.36c.33-.94,1.05-1.41,2.16-1.41,1.3,0,1.95.61,1.95,1.83v1.94c0,.73.04,1.36.13,1.87h-.64c-.05-.21-.09-.53-.12-.97-.48.73-1.15,1.1-1.99,1.1-.58,0-1.03-.17-1.34-.5-.26-.28-.39-.65-.39-1.09,0-1,.62-1.6,1.86-1.8.48-.08,1.09-.14,1.83-.18v-.3c0-.52-.11-.89-.34-1.09-.2-.18-.52-.27-.96-.27-.79,0-1.29.37-1.51,1.11l-.64-.23Zm3.45,1.28c-.55.01-1.11.07-1.68.18-.88.18-1.32.6-1.32,1.27,0,.36.11.63.34.83.2.18.48.26.82.26.74,0,1.35-.4,1.84-1.19v-1.34Z"/>
		<path d="m17.86,1.41v3.52c.44-.66,1-.99,1.68-.99s1.23.28,1.63.85c.36.52.54,1.19.54,2.01,0,.95-.24,1.69-.73,2.23-.41.45-.91.68-1.5.68-.69,0-1.25-.34-1.66-1.03l-.12.89h-.52V1.41h.68Zm0,4.23v2.42c.41.71.92,1.07,1.52,1.07.51,0,.92-.23,1.21-.68.28-.41.41-.96.41-1.63,0-.77-.16-1.36-.49-1.77-.28-.34-.63-.51-1.07-.51-.65,0-1.18.37-1.58,1.1Z"/>
		<path d="m23.4,5.36c.33-.94,1.05-1.41,2.16-1.41,1.3,0,1.95.61,1.95,1.83v1.94c0,.73.04,1.36.13,1.87h-.64c-.05-.21-.09-.53-.12-.97-.48.73-1.15,1.1-1.99,1.1-.58,0-1.03-.17-1.34-.5-.26-.28-.39-.65-.39-1.09,0-1,.62-1.6,1.86-1.8.48-.08,1.09-.14,1.83-.18v-.3c0-.52-.11-.89-.34-1.09-.2-.18-.52-.27-.96-.27-.79,0-1.29.37-1.51,1.11l-.64-.23Zm3.45,1.28c-.55.01-1.11.07-1.68.18-.88.18-1.32.6-1.32,1.27,0,.36.11.63.34.83.2.18.48.26.82.26.74,0,1.35-.4,1.84-1.19v-1.34Z"/>
		<path d="m30.54,1.86v1.03h-1.01v-1.03h1.01Zm-.16,2.21v5.5h-.68v-5.5h.68Z"/>
		<path d="m36.89,6.88h-3.99c0,.77.19,1.36.56,1.78.31.34.71.52,1.19.52.79,0,1.31-.39,1.56-1.18l.64.24c-.38.98-1.12,1.48-2.21,1.48-.77,0-1.38-.29-1.82-.88-.39-.52-.59-1.18-.59-2,0-.93.25-1.67.76-2.21.43-.46.96-.69,1.6-.69.73,0,1.31.28,1.73.84.38.5.57,1.14.57,1.92v.18Zm-.68-.52c-.05-.64-.24-1.12-.56-1.45-.28-.28-.63-.42-1.06-.42-.49,0-.9.19-1.2.57-.27.33-.43.77-.47,1.3h3.29Z"/>
	</g>
	<g>
		<path d="m10.88,13.99c3.35,0,6.01,1.34,7.98,4.03,1.78,2.44,2.67,5.62,2.67,9.54,0,4.5-1.14,8-3.43,10.51-1.92,2.1-4.33,3.15-7.22,3.15-3.35,0-6.01-1.35-7.98-4.04C1.12,34.73.23,31.56.23,27.64c0-4.5,1.15-8.01,3.46-10.53,1.92-2.09,4.32-3.13,7.19-3.13Zm0,2.06c-2.61,0-4.66,1.12-6.13,3.38-1.34,2.04-2,4.76-2,8.17,0,3.89.86,6.88,2.58,8.96,1.44,1.73,3.29,2.6,5.55,2.6,2.62,0,4.68-1.13,6.15-3.39,1.32-2.04,1.99-4.76,1.99-8.17,0-3.9-.86-6.88-2.57-8.95-1.43-1.73-3.29-2.6-5.57-2.6Z"/>
		<path d="m41.38,22.7v18h-2.16v-3.43c-.81,1.28-1.85,2.26-3.13,2.95-1.1.61-2.24.91-3.41.91-1.62,0-2.89-.49-3.81-1.46-.87-.89-1.3-2.09-1.3-3.59v-13.39h2.27v12.71c0,2.5,1.15,3.74,3.45,3.74,1.11,0,2.24-.4,3.39-1.21,1-.7,1.82-1.58,2.48-2.64v-12.6h2.23Z"/>
		<path d="m56.76,22.26l-.18,2.23c-1.27,0-2.44.54-3.52,1.63-1.01,1.01-1.77,2.35-2.29,4.03v10.55h-2.2v-18h2.13v4.68c.7-1.79,1.65-3.13,2.85-4.03.98-.73,2.05-1.09,3.2-1.09Z"/>
		<path d="m73.6,26.52l-2.16.76c-.68-2.17-2.14-3.25-4.39-3.25-1.36,0-2.41.3-3.15.9-.63.52-.95,1.18-.95,1.99,0,1.01.32,1.75.95,2.23.56.43,1.56.81,3.01,1.12l1.44.32c2.23.52,3.76,1.2,4.59,2.04.76.76,1.14,1.84,1.14,3.23,0,1.65-.64,2.96-1.92,3.92-1.21.91-2.85,1.37-4.92,1.37-3.62,0-5.99-1.45-7.1-4.36l2.16-.83c.8,2.29,2.46,3.43,4.97,3.43,1.66,0,2.89-.38,3.69-1.14.61-.59.91-1.31.91-2.18,0-1.11-.32-1.92-.95-2.41-.6-.46-1.71-.87-3.34-1.23l-1.44-.33c-2.12-.48-3.57-1.16-4.36-2.04-.64-.71-.97-1.7-.97-2.95,0-1.51.59-2.71,1.78-3.59,1.1-.83,2.6-1.25,4.48-1.25,3.25,0,5.42,1.42,6.52,4.25Z"/>
		<path d="m86.5,22.26c2.4,0,4.31.95,5.73,2.85,1.27,1.7,1.9,3.87,1.9,6.52,0,3.07-.81,5.48-2.44,7.24-1.38,1.51-3.12,2.27-5.22,2.27-2.44,0-4.36-.96-5.77-2.88-1.24-1.69-1.86-3.86-1.86-6.52,0-3.07.81-5.48,2.43-7.22,1.38-1.5,3.13-2.25,5.24-2.25Zm0,1.83c-1.78,0-3.15.75-4.1,2.25-.84,1.32-1.27,3.1-1.27,5.33,0,2.58.54,4.55,1.62,5.91.94,1.16,2.17,1.74,3.71,1.74,1.77,0,3.13-.76,4.1-2.27.84-1.34,1.27-3.13,1.27-5.38,0-2.54-.54-4.49-1.62-5.84-.94-1.16-2.17-1.74-3.71-1.74Z"/>
		<path d="m102.36,22.7v3.34c2.02-2.52,4.21-3.78,6.57-3.78,1.63,0,2.9.51,3.81,1.53.82.9,1.23,2.09,1.23,3.55v13.36h-2.27v-12.43c0-2.66-1.11-3.99-3.34-3.99-2.09,0-4.07,1.25-5.94,3.74v12.67h-2.23v-18h2.16Z"/>
	</g>
</svg>